<?xml version="1.0" encoding="utf-8"?>
<!-- Generator: Adobe Illustrator 16.0.0, SVG Export Plug-In . SVG Version: 6.00 Build 0)  -->
<!DOCTYPE svg PUBLIC "-//W3C//DTD SVG 1.1//EN" "http://www.w3.org/Graphics/SVG/1.1/DTD/svg11.dtd">
<svg version="1.1" id="Layer_1" xmlns="http://www.w3.org/2000/svg" xmlns:xlink="http://www.w3.org/1999/xlink" x="0px" y="0px"
	 width="2400px" height="600px" viewBox="0 0 2400 600" enable-background="new 0 0 2400 600" xml:space="preserve">
<g>
	<g>
		<g>
			
				<radialGradient id="SVGID_1_" cx="-1158.9067" cy="206.9717" r="422.3714" gradientTransform="matrix(1.2053 0 0 -1.2053 1566.2069 699.4302)" gradientUnits="userSpaceOnUse">
				<stop  offset="0" style="stop-color:#3591CF"/>
				<stop  offset="1" style="stop-color:#2C64AC"/>
			</radialGradient>
			<circle fill="url(#SVGID_1_)" cx="154.962" cy="78.057" r="41.261"/>
			
				<radialGradient id="SVGID_2_" cx="-1150.4341" cy="206.9717" r="422.3709" gradientTransform="matrix(1.2053 0 0 -1.2053 1569.786 699.4302)" gradientUnits="userSpaceOnUse">
				<stop  offset="0" style="stop-color:#3591CF"/>
				<stop  offset="1" style="stop-color:#2C64AC"/>
			</radialGradient>
			<circle fill="url(#SVGID_2_)" cx="260.867" cy="78.057" r="41.261"/>
			
				<radialGradient id="SVGID_3_" cx="-1139.1953" cy="206.9717" r="422.3694" gradientTransform="matrix(1.2053 0 0 -1.2053 1574.5321 699.4302)" gradientUnits="userSpaceOnUse">
				<stop  offset="0" style="stop-color:#3591CF"/>
				<stop  offset="1" style="stop-color:#2C64AC"/>
			</radialGradient>
			<circle fill="url(#SVGID_3_)" cx="370.896" cy="78.057" r="41.261"/>
			
				<radialGradient id="SVGID_4_" cx="-1127.959" cy="206.9717" r="422.3701" gradientTransform="matrix(1.2053 0 0 -1.2053 1579.2792 699.4302)" gradientUnits="userSpaceOnUse">
				<stop  offset="0" style="stop-color:#3591CF"/>
				<stop  offset="1" style="stop-color:#2C64AC"/>
			</radialGradient>
			<circle fill="url(#SVGID_4_)" cx="481.27" cy="78.057" r="41.261"/>
			
				<radialGradient id="SVGID_5_" cx="-1116.7192" cy="206.9717" r="422.3682" gradientTransform="matrix(1.2053 0 0 -1.2053 1584.0262 699.4302)" gradientUnits="userSpaceOnUse">
				<stop  offset="0" style="stop-color:#3591CF"/>
				<stop  offset="1" style="stop-color:#2C64AC"/>
			</radialGradient>
			<circle fill="url(#SVGID_5_)" cx="591.642" cy="78.057" r="41.261"/>
		</g>
		<g>
			
				<radialGradient id="SVGID_6_" cx="-1158.9067" cy="164.7861" r="422.3765" gradientTransform="matrix(1.2053 0 0 -1.2053 1566.2069 717.2505)" gradientUnits="userSpaceOnUse">
				<stop  offset="0" style="stop-color:#3591CF"/>
				<stop  offset="1" style="stop-color:#2C64AC"/>
			</radialGradient>
			<circle fill="url(#SVGID_6_)" cx="154.962" cy="514.393" r="41.261"/>
			
				<radialGradient id="SVGID_7_" cx="-1148.3599" cy="164.7861" r="422.3657" gradientTransform="matrix(1.2053 0 0 -1.2053 1570.662 717.2505)" gradientUnits="userSpaceOnUse">
				<stop  offset="0" style="stop-color:#3591CF"/>
				<stop  offset="1" style="stop-color:#2C64AC"/>
			</radialGradient>
			<circle fill="url(#SVGID_7_)" cx="263.961" cy="514.393" r="41.261"/>
			
				<radialGradient id="SVGID_8_" cx="-1137.814" cy="164.7861" r="422.3658" gradientTransform="matrix(1.2053 0 0 -1.2053 1575.1161 717.2505)" gradientUnits="userSpaceOnUse">
				<stop  offset="0" style="stop-color:#3591CF"/>
				<stop  offset="1" style="stop-color:#2C64AC"/>
			</radialGradient>
			<circle fill="url(#SVGID_8_)" cx="373.302" cy="514.393" r="41.261"/>
			
				<radialGradient id="SVGID_9_" cx="-1127.2656" cy="164.7861" r="422.3647" gradientTransform="matrix(1.2053 0 0 -1.2053 1579.5712 717.2505)" gradientUnits="userSpaceOnUse">
				<stop  offset="0" style="stop-color:#3591CF"/>
				<stop  offset="1" style="stop-color:#2C64AC"/>
			</radialGradient>
			<circle fill="url(#SVGID_9_)" cx="482.3" cy="514.393" r="41.261"/>
			
				<radialGradient id="SVGID_10_" cx="-1116.7192" cy="164.7861" r="422.3648" gradientTransform="matrix(1.2053 0 0 -1.2053 1584.0262 717.2505)" gradientUnits="userSpaceOnUse">
				<stop  offset="0" style="stop-color:#3591CF"/>
				<stop  offset="1" style="stop-color:#2C64AC"/>
			</radialGradient>
			<circle fill="url(#SVGID_10_)" cx="591.642" cy="514.393" r="41.261"/>
		</g>
		<g>
			
				<radialGradient id="SVGID_11_" cx="-1158.9067" cy="175.333" r="422.3621" gradientTransform="matrix(1.2053 0 0 -1.2053 1566.2069 712.7954)" gradientUnits="userSpaceOnUse">
				<stop  offset="0" style="stop-color:#3591CF"/>
				<stop  offset="1" style="stop-color:#2C64AC"/>
			</radialGradient>
			<circle fill="url(#SVGID_11_)" cx="154.962" cy="405.395" r="41.261"/>
			
				<radialGradient id="SVGID_12_" cx="-1158.9067" cy="185.8794" r="422.3702" gradientTransform="matrix(1.2053 0 0 -1.2053 1566.2069 708.3403)" gradientUnits="userSpaceOnUse">
				<stop  offset="0" style="stop-color:#3591CF"/>
				<stop  offset="1" style="stop-color:#2C64AC"/>
			</radialGradient>
			<circle fill="url(#SVGID_12_)" cx="154.962" cy="296.052" r="41.261"/>
			
				<radialGradient id="SVGID_13_" cx="-1158.9067" cy="196.4219" r="422.37" gradientTransform="matrix(1.2053 0 0 -1.2053 1566.2069 703.8872)" gradientUnits="userSpaceOnUse">
				<stop  offset="0" style="stop-color:#3591CF"/>
				<stop  offset="1" style="stop-color:#2C64AC"/>
			</radialGradient>
			<circle fill="url(#SVGID_13_)" cx="154.962" cy="187.055" r="41.261"/>
			
				<radialGradient id="SVGID_14_" cx="-1688.0918" cy="128.3936" r="418.0443" gradientTransform="matrix(0.8118 0 0 -0.8118 1544.3031 430.1934)" gradientUnits="userSpaceOnUse">
				<stop  offset="0" style="stop-color:#3591CF"/>
				<stop  offset="1" style="stop-color:#2C64AC"/>
			</radialGradient>
			<circle fill="url(#SVGID_14_)" cx="164.248" cy="78.057" r="27.507"/>
			
				<radialGradient id="SVGID_15_" cx="-1158.9067" cy="164.7861" r="422.3765" gradientTransform="matrix(1.2053 0 0 -1.2053 1566.2069 717.2505)" gradientUnits="userSpaceOnUse">
				<stop  offset="0" style="stop-color:#3591CF"/>
				<stop  offset="1" style="stop-color:#2C64AC"/>
			</radialGradient>
			<circle fill="url(#SVGID_15_)" cx="154.962" cy="514.393" r="41.261"/>
		</g>
		<g>
			
				<radialGradient id="SVGID_16_" cx="-1116.7192" cy="175.333" r="422.3643" gradientTransform="matrix(1.2053 0 0 -1.2053 1584.0262 712.7954)" gradientUnits="userSpaceOnUse">
				<stop  offset="0" style="stop-color:#3591CF"/>
				<stop  offset="1" style="stop-color:#2C64AC"/>
			</radialGradient>
			<circle fill="url(#SVGID_16_)" cx="591.642" cy="405.395" r="41.261"/>
			
				<radialGradient id="SVGID_17_" cx="-1116.7192" cy="185.8794" r="422.366" gradientTransform="matrix(1.2053 0 0 -1.2053 1584.0262 708.3403)" gradientUnits="userSpaceOnUse">
				<stop  offset="0" style="stop-color:#3591CF"/>
				<stop  offset="1" style="stop-color:#2C64AC"/>
			</radialGradient>
			<circle fill="url(#SVGID_17_)" cx="591.642" cy="296.052" r="41.261"/>
			
				<radialGradient id="SVGID_18_" cx="-1116.7192" cy="196.4219" r="422.3668" gradientTransform="matrix(1.2053 0 0 -1.2053 1584.0262 703.8872)" gradientUnits="userSpaceOnUse">
				<stop  offset="0" style="stop-color:#3591CF"/>
				<stop  offset="1" style="stop-color:#2C64AC"/>
			</radialGradient>
			<circle fill="url(#SVGID_18_)" cx="591.642" cy="187.055" r="41.261"/>
			
				<radialGradient id="SVGID_19_" cx="-1116.7192" cy="206.9717" r="422.3682" gradientTransform="matrix(1.2053 0 0 -1.2053 1584.0262 699.4302)" gradientUnits="userSpaceOnUse">
				<stop  offset="0" style="stop-color:#3591CF"/>
				<stop  offset="1" style="stop-color:#2C64AC"/>
			</radialGradient>
			<circle fill="url(#SVGID_19_)" cx="591.642" cy="78.057" r="41.261"/>
			
				<radialGradient id="SVGID_20_" cx="-1116.7192" cy="164.7861" r="422.3648" gradientTransform="matrix(1.2053 0 0 -1.2053 1584.0262 717.2505)" gradientUnits="userSpaceOnUse">
				<stop  offset="0" style="stop-color:#3591CF"/>
				<stop  offset="1" style="stop-color:#2C64AC"/>
			</radialGradient>
			<circle fill="url(#SVGID_20_)" cx="591.642" cy="514.393" r="41.261"/>
		</g>
	</g>
	
		<linearGradient id="SVGID_21_" gradientUnits="userSpaceOnUse" x1="-773.5811" y1="449.9824" x2="-925.7969" y2="316.0709" gradientTransform="matrix(1.4303 0 0 -1.4303 1578.0642 853.3787)">
		<stop  offset="0" style="stop-color:#EF8621"/>
		<stop  offset="0.6552" style="stop-color:#F1612F"/>
	</linearGradient>
	<path fill="url(#SVGID_21_)" d="M316.225,388.202c0,19.256-15.474,34.729-34.727,34.729c-19.256,0-34.729-15.474-34.729-34.729
		s15.474-34.728,34.729-34.728C300.409,353.475,316.225,368.946,316.225,388.202z M338.575,296.053
		c0,19.255,15.474,34.729,34.727,34.729c19.256,0,34.729-15.474,34.729-34.729c0-19.255-15.474-34.728-34.729-34.728
		C354.049,261.325,338.575,276.797,338.575,296.053z M430.724,204.247c0,19.256,15.474,34.728,34.729,34.728
		c19.255,0,34.727-15.472,34.727-34.728s-15.472-34.728-34.727-34.728C446.198,169.519,430.724,184.991,430.724,204.247z
		 M430.724,296.053c0,19.255,15.474,34.729,34.729,34.729c19.255,0,34.727-15.474,34.727-34.729
		c0-19.255-15.472-34.728-34.727-34.728C446.198,261.325,430.724,276.797,430.724,296.053z M430.724,388.202
		c0,19.256,15.474,34.729,34.729,34.729c19.255,0,34.727-15.474,34.727-34.729s-15.472-34.728-34.727-34.728
		C446.198,353.475,430.724,368.946,430.724,388.202z M338.232,204.247c0,19.256,15.471,34.728,34.727,34.728
		c19.256,0,34.727-15.472,34.727-34.728s-15.471-34.728-34.727-34.728C353.704,169.519,338.232,184.991,338.232,204.247z
		 M246.426,204.247c0,19.256,15.471,34.728,34.727,34.728s34.729-15.472,34.729-34.728s-15.474-34.728-34.729-34.728
		C262.242,169.519,246.426,184.991,246.426,204.247z"/>
	<g>
		<path fill="#FFFFFF" d="M802.876,45.822h68.158l84.389,165.994l83.461-165.994h67.233v270.321h-54.716V133.456l-76.968,155.33
			h-39.412l-77.434-155.33v182.687h-54.712V45.822z"/>
		<path fill="#FFFFFF" d="M1165.93,45.822h61.206v270.321h-61.206V45.822z"/>
		<path fill="#FFFFFF" d="M1420.949,100.534c-15.766-5.1-28.746-7.417-39.878-7.417c-10.662,0-19.007,1.854-25.035,5.563
			c-6.027,3.708-9.275,9.736-9.275,17.156c0,9.737,4.638,16.692,13.448,21.792c8.808,5.101,22.719,10.201,41.267,15.765
			c18.546,5.564,33.847,10.665,45.902,16.23c12.055,5.562,22.256,13.445,30.601,24.573c8.35,10.665,12.986,25.038,12.986,43.122
			c0,17.156-4.637,31.992-13.91,44.512c-9.276,12.519-21.794,21.792-37.56,28.284c-15.763,6.491-34.312,9.737-54.713,9.737
			c-21.793,0-43.584-3.709-64.45-11.591c-21.328-7.883-39.412-18.084-54.712-31.531l24.573-50.076
			c13.448,12.52,29.211,22.256,47.295,29.676c17.62,7.417,33.849,11.127,48.688,11.127c12.518,0,22.255-2.319,29.673-6.955
			c6.955-4.637,10.666-11.128,10.666-19.939c0-6.955-2.32-12.519-6.959-17.155c-4.635-4.637-10.662-8.345-18.08-11.128
			c-7.42-2.78-17.62-6.027-30.139-9.736c-18.549-5.101-33.849-10.201-45.439-15.302c-11.593-5.101-21.794-12.981-30.139-23.646
			c-8.345-10.667-12.983-24.575-12.983-42.195c0-16.228,4.173-30.603,12.983-42.658c8.808-12.055,20.863-21.792,36.629-28.283
			c15.766-6.493,33.85-9.737,54.713-9.737c18.548,0,36.632,2.781,54.715,8.345c18.08,5.564,33.846,12.52,47.758,21.792
			l-23.649,50.542C1451.55,112.59,1436.716,105.636,1420.949,100.534z"/>
		<path fill="#FFFFFF" d="M1667.158,100.534c-15.763-5.1-28.746-7.417-39.874-7.417c-10.665,0-19.012,1.854-25.039,5.563
			c-6.027,3.708-9.272,9.736-9.272,17.156c0,9.737,4.634,16.692,13.445,21.792c8.811,5.101,22.718,10.201,41.267,15.765
			c18.55,5.564,33.847,10.665,45.901,16.23c12.057,5.562,22.257,13.445,30.604,24.573c8.346,10.665,12.983,25.038,12.983,43.122
			c0,17.156-4.638,31.992-13.91,44.512c-9.273,12.519-21.795,21.792-37.557,28.284c-15.766,6.491-34.315,9.737-54.716,9.737
			c-21.79,0-43.584-3.709-64.451-11.591c-21.328-7.883-39.408-18.084-54.712-31.531l24.573-50.076
			c13.448,12.52,29.214,22.256,47.298,29.676c17.618,7.417,33.847,11.127,48.686,11.127c12.517,0,22.256-2.319,29.674-6.955
			c6.954-4.637,10.665-11.128,10.665-19.939c0-6.955-2.317-12.519-6.956-17.155c-4.638-4.637-10.665-8.345-18.083-11.128
			c-7.417-2.78-17.617-6.027-30.139-9.736c-18.546-5.101-33.847-10.201-45.439-15.302c-11.594-5.101-21.795-12.981-30.14-23.646
			c-8.345-10.667-12.981-24.575-12.981-42.195c0-16.228,4.174-30.603,12.981-42.658c8.812-12.055,20.866-21.792,36.63-28.283
			c15.766-6.493,33.849-9.737,54.715-9.737c18.546,0,36.63,2.781,54.712,8.345c18.084,5.564,33.847,12.52,47.757,21.792
			l-23.645,50.542C1697.762,112.59,1682.925,105.636,1667.158,100.534z"/>
		<path fill="#FFFFFF" d="M1977.816,316.143l-21.324-52.396h-125.194l-21.328,52.396h-63.058L1864.22,45.822h63.057l115.457,270.321
			H1977.816z M1851.236,214.599h85.316l-42.659-105.253L1851.236,214.599z"/>
		<path fill="#FFFFFF" d="M2258.34,45.822h57.958v270.321h-55.641l-131.218-173.878v173.878h-58.423V45.822h55.641l131.218,174.805
			V45.822H2258.34z"/>
	</g>
	<g opacity="0.4">
		<path fill="#FFFFFF" d="M795.455,388.938h21.329v156.257h-21.329V388.938z"/>
		<path fill="#FFFFFF" d="M841.36,388.938h121.946v19.477h-50.54v136.318h-21.329V408.414H841.36V388.938L841.36,388.938z"/>
		<path fill="#FFFFFF" d="M1114.925,411.193c-7.883-2.316-14.835-3.245-21.328-3.245c-9.273,0-16.228,1.855-21.791,5.101
			c-5.565,3.711-8.348,8.349-8.348,14.376c0,5.563,1.855,10.201,5.1,13.445c3.248,3.71,7.421,6.027,12.056,8.346
			c4.638,1.855,11.593,4.172,19.938,6.956c10.666,3.244,19.011,6.492,25.501,9.271c6.493,2.783,12.056,7.421,16.693,13.448
			c4.639,6.029,6.956,13.445,6.956,23.185c0,8.807-2.317,16.689-7.417,23.184c-4.638,6.489-11.593,12.055-20.404,15.3
			c-8.811,3.711-18.546,5.563-30.139,5.563c-11.59,0-22.719-2.316-33.384-6.49c-10.663-4.638-20.401-10.2-28.284-17.621
			l9.738-18.546c7.418,7.418,15.767,12.983,25.039,16.694c9.272,4.172,18.545,6.027,26.891,6.027
			c10.204,0,18.549-1.855,24.576-6.027c6.028-4.176,8.808-9.738,8.808-16.694c0-5.561-1.852-10.199-5.101-13.445
			c-3.245-3.247-7.417-6.492-12.518-8.348c-5.1-1.852-11.593-4.172-20.4-6.956c-10.204-3.245-19.011-6.023-25.504-9.272
			c-6.49-2.779-12.056-7.418-16.69-12.982c-4.638-6.028-6.955-13.446-6.955-23.185c0-8.345,2.317-15.762,6.955-22.255
			c4.635-6.49,11.128-11.128,19.474-14.835c8.345-3.249,18.083-5.101,29.211-5.101c9.273,0,18.548,1.39,27.355,4.172
			c8.811,2.78,17.156,6.491,24.112,11.128l-8.808,19.012C1130.229,416.76,1122.808,413.515,1114.925,411.193z"/>
		<path fill="#FFFFFF" d="M1292.976,397.749c12.521,6.954,22.257,16.692,29.674,28.747c7.42,12.057,11.131,25.502,11.131,39.875
			c0,14.374-3.711,27.821-11.131,40.34c-7.417,12.055-17.153,21.794-29.674,29.212c-12.521,6.954-26.428,10.665-41.267,10.665
			c-14.835,0-28.746-3.711-41.268-10.665c-12.518-6.956-22.256-16.692-29.673-29.212c-7.421-12.056-11.128-25.501-11.128-40.34
			c0-14.835,3.708-27.818,11.128-39.875c7.417-12.055,17.155-21.793,29.673-28.747c12.521-6.956,26.433-10.663,41.268-10.663
			C1267.01,387.548,1280.458,390.793,1292.976,397.749z M1222.035,414.904c-9.273,5.564-16.693,12.521-22.26,21.793
			c-5.562,9.273-8.345,19.012-8.345,30.14s2.783,21.328,8.345,30.139c5.566,9.272,12.986,16.69,22.26,21.79
			c9.273,5.565,19.473,8.346,30.136,8.346c10.665,0,20.866-2.78,30.14-8.346c9.275-5.563,16.228-12.518,21.793-21.79
			c5.566-9.276,8.346-19.476,8.346-30.139c0-10.665-2.779-20.866-8.346-30.14c-5.565-9.272-12.518-16.229-21.793-21.793
			c-9.273-5.563-19.008-7.883-30.14-7.883C1241.046,406.559,1231.309,409.342,1222.035,414.904z"/>
		<path fill="#FFFFFF" d="M1364.844,388.938h21.332v136.784h68.157v19.473h-89.489V388.938z"/>
		<path fill="#FFFFFF" d="M1511.366,515.057c7.883,7.883,19.008,12.055,32.918,12.055c13.912,0,24.577-4.172,32.457-12.055
			c7.883-7.881,11.594-19.475,11.594-33.847v-92.272h21.328v92.272c0,20.401-6.029,36.167-17.619,47.757
			c-11.592,11.593-27.82,17.621-48.222,17.621c-20.866,0-37.095-5.566-48.685-17.621c-11.594-11.59-17.621-27.355-17.621-47.757
			v-92.272h21.332v92.272C1499.31,495.582,1503.483,506.711,1511.366,515.057z"/>
		<path fill="#FFFFFF" d="M1631.456,388.938h121.946v19.477h-50.54v136.318h-21.331V408.414h-50.075V388.938z"/>
		<path fill="#FFFFFF" d="M1777.976,388.938h21.332v156.257h-21.332V388.938z"/>
		<path fill="#FFFFFF" d="M1953.243,397.749c12.519,6.954,22.257,16.692,29.678,28.747c7.417,12.057,11.128,25.502,11.128,39.875
			c0,14.374-3.711,27.821-11.128,40.34c-7.421,12.055-17.159,21.794-29.678,29.212c-12.517,6.954-26.428,10.665-41.266,10.665
			c-14.839,0-28.747-3.711-41.268-10.665c-12.518-6.956-22.256-16.692-29.674-29.212c-7.417-12.056-11.128-25.501-11.128-40.34
			c0-14.835,3.711-27.818,11.128-39.875c7.418-12.055,17.156-21.793,29.674-28.747c12.521-6.956,26.429-10.663,41.268-10.663
			C1926.815,387.548,1940.727,390.793,1953.243,397.749z M1881.837,414.904c-9.271,5.564-16.689,12.521-22.255,21.793
			c-5.563,9.273-8.346,19.012-8.346,30.14s2.783,21.328,8.346,30.139c5.565,9.272,12.983,16.69,22.255,21.79
			c9.274,5.565,19.478,8.346,30.141,8.346c10.665,0,20.865-2.78,30.138-8.346c9.274-5.563,16.229-12.518,21.795-21.79
			c5.562-9.276,8.344-19.476,8.344-30.139c0-10.665-2.782-20.866-8.344-30.14c-5.566-9.272-12.521-16.229-21.795-21.793
			c-9.272-5.563-19.011-7.883-30.138-7.883C1901.314,406.559,1891.111,409.342,1881.837,414.904z"/>
		<path fill="#FFFFFF" d="M2135.934,388.938h21.324v156.257h-21.79l-89.027-121.019v121.019h-21.325V388.938h21.791l89.488,121.019
			V388.938H2135.934z"/>
		<path fill="#FFFFFF" d="M2270.396,411.193c-7.884-2.316-14.839-3.245-21.329-3.245c-9.275,0-16.228,1.855-21.793,5.101
			c-5.566,3.711-8.345,8.349-8.345,14.376c0,5.563,1.854,10.201,5.099,13.445c3.246,3.71,7.418,6.027,12.057,8.346
			c4.638,2.32,11.59,4.172,19.935,6.956c10.666,3.244,19.015,6.492,25.505,9.271c6.489,2.783,12.056,7.421,16.689,13.448
			c4.639,6.029,6.956,13.445,6.956,23.185c0,8.807-2.317,16.689-7.418,23.184c-4.638,6.489-11.593,12.055-20.399,15.3
			c-8.812,3.711-18.551,5.563-30.141,5.563c-11.592,0-22.72-2.316-33.387-6.49c-10.662-4.638-20.4-10.2-28.283-17.621l9.738-18.546
			c7.42,7.418,15.766,12.983,25.038,16.694c9.272,4.172,18.549,6.027,26.894,6.027c10.201,0,18.546-1.855,24.573-6.027
			c6.029-4.176,8.812-9.738,8.812-16.694c0-5.561-1.855-10.199-5.1-13.445c-3.245-3.247-7.421-6.492-12.52-8.348
			c-5.103-1.852-11.592-4.172-20.403-6.956c-10.199-3.245-19.011-6.023-25.501-9.272c-6.49-2.779-12.056-7.418-16.693-12.982
			c-4.635-6.028-6.955-13.446-6.955-23.185c0-8.345,2.32-15.762,6.955-22.255c4.638-6.49,11.127-11.128,19.477-14.835
			c8.346-3.249,18.08-5.101,29.211-5.101c9.272,0,18.546,1.39,27.356,4.172c8.812,2.78,17.156,6.491,24.11,11.128l-8.81,19.012
			C2285.697,416.76,2278.279,413.515,2270.396,411.193z"/>
	</g>
</g>
</svg>
